<?xml version="1.0" encoding="UTF-8" standalone="no"?>
<!-- Created with Inkscape (http://www.inkscape.org/) -->

<svg
   width="1024"
   height="1024"
   viewBox="0 0 270.93333 270.93333"
   version="1.1"
   id="svg12"
   inkscape:version="1.1.2 (08b2f3d93c, 2022-04-05)"
   sodipodi:docname="logo.svg"
   xmlns:inkscape="http://www.inkscape.org/namespaces/inkscape"
   xmlns:sodipodi="http://sodipodi.sourceforge.net/DTD/sodipodi-0.dtd"
   xmlns="http://www.w3.org/2000/svg"
   xmlns:svg="http://www.w3.org/2000/svg">
  <sodipodi:namedview
     id="namedview14"
     pagecolor="#ffffff"
     bordercolor="#666666"
     borderopacity="1.0"
     inkscape:pageshadow="2"
     inkscape:pageopacity="0.0"
     inkscape:pagecheckerboard="0"
     inkscape:document-units="mm"
     showgrid="false"
     units="px"
     inkscape:zoom="0.5499273"
     inkscape:cx="-131.83561"
     inkscape:cy="686.45437"
     inkscape:window-width="2560"
     inkscape:window-height="1378"
     inkscape:window-x="1920"
     inkscape:window-y="0"
     inkscape:window-maximized="1"
     inkscape:current-layer="layer1" />
  <defs
     id="defs9" />
  <g
     inkscape:label="Layer 1"
     inkscape:groupmode="layer"
     id="layer1">
    <path
       d="m 270.08198,131.78231 -12.23062,-6.79265 v -2.71624 l 9.51453,-9.50991 c 1.33501,-1.3607 1.33501,-4.07694 0,-5.43455 l -1.33504,-1.36068 -12.2257,-4.07693 c 0,-1.36068 0,-2.716247 -1.33498,-2.716247 l 8.15367,-10.868055 c 1.33527,-1.36068 1.33527,-4.07692 -1.33492,-5.43451 0,0 -1.38616,0 -1.38616,-1.36069 l -13.58129,-2.71625 c 0,-1.3607 -1.33517,-1.3607 -1.33517,-2.71625 l 5.4326,-12.22665 v -4.07694 c -1.33488,-1.3607 -2.72146,-1.3607 -4.05637,-1.3607 h -13.58629 c 0,0 0,-1.35552 -1.3349,-1.35552 l 2.72126,-13.58584 c 0,-2.71625 -1.33504,-4.07692 -2.72126,-4.07692 h -1.33526 l -13.58613,2.71623 c 0,-1.35556 -1.33507,-1.35556 -2.72137,-2.71623 v -13.58582 c 0,-2.71625 -1.33518,-4.07693 -4.05664,-4.07693 h -1.38622 l -12.22551,5.43401 h -1.38658 l -2.72148,-13.58532 c 0,-2.71622 -2.72107,-4.0769009 -4.05625,-2.71622 h -1.33489 l -10.87013,8.15129 c -1.33518,0 -2.72138,0 -2.72138,-1.36068 L 166.98317,5.4304071 c -1.33518,-1.36066 -2.72148,-2.71623 -5.43246,-2.71623 0,0 -1.33507,0 -1.33507,1.36071 l -10.86492,9.5098909 h -2.72145 L 139.83606,2.7162271 C 138.50116,-1.2946072e-5 135.77967,-1.2946072e-5 133.04287,-1.2946072e-5 L 131.70796,1.3606871 124.91475,13.587858 h -2.72137 l -9.50953,-9.5099009 c -1.3349,-1.36069 -4.05636,-1.36069 -5.43233,0 l -1.33501,1.36067 -4.05655,12.2266909 c -1.33487,0 -2.721376,0 -2.721376,1.36069 l -10.86475,-8.15128 c -2.72135,-1.3606909 -5.43768,-1.3606909 -6.79335,1.36068 v 1.36068 l -2.72118,13.58531 c 0,0 -1.33518,0 -2.72149,1.3607 l -12.2255,-5.43404 c -1.33518,-1.36068 -4.05655,0 -5.43263,1.36069 v 14.94395 c 0,1.36068 -1.33504,1.36068 -1.33504,2.71623 l -13.58624,-2.71623 c -2.72136,-1.3607 -4.05644,0 -4.05644,2.71623 v 1.3607 l 2.72126,13.58582 c -1.3349,0 -1.3349,1.35553 -2.72126,1.35553 h -13.58624 c -2.72145,0 -4.05652,1.3607 -4.05652,4.07693 v 1.3607 l 5.43249,12.22666 v 2.71626 l -13.58641,2.71625 c -2.72137,0 -4.0562504,2.71621 -4.0562504,4.0769 v 1.36071 l 8.1487204,10.868545 c 0,1.36068 0,2.716237 -1.33506,2.716237 l -10.8700404,5.43454 c -1.33515,1.36068 -2.72146,2.71624 -2.72146,5.43402 0,0 0,1.36067 1.335,1.36067 l 9.5094404,9.50994 v 2.71624 l -10.8649304,6.79265 c -2.72131001,1.36068 -2.72131001,4.07692 -2.72131001,5.43454 l 1.33501001,1.36068 12.2255104,8.15129 v 2.71623 l -9.5093304,9.50994 c -1.33499,1.36065 -1.33499,4.07691 0,5.43401 l 1.33506,1.36068 12.2256804,4.07694 c 0,1.36066 0,2.71622 1.33502,2.71622 l -8.15378,10.86856 c -1.3351804,1.3607 -1.3351804,4.07695 1.3349,5.43402 0,0 1.33485,0 1.33485,1.3607 l 13.58643,2.71622 c 0,1.36071 1.33517,1.36071 1.33517,2.71624 l -5.43262,12.22668 c -1.33507,1.3607 0,4.07695 1.3349,5.43401 h 14.9471 c 1.33508,0 1.33508,1.3607 2.72126,1.3607 l -2.72126,13.58582 c 0,2.71623 1.33508,4.07693 2.72126,4.07693 h 1.33518 l 13.58625,-2.71623 c 0,1.36067 1.33504,1.36067 2.72135,2.71623 v 13.58531 c 0,2.71622 1.33517,4.07692 4.05664,4.07692 h 1.3862 l 12.22551,-5.43401 h 1.33518 l 2.72148,13.58531 c 0,2.71623 2.72108,4.07694 4.05633,2.71623 h 1.33492 l 10.87005,-8.15128 c 1.33518,0 2.721476,0 2.721476,1.35556 l 4.05626,12.22717 c 1.33515,1.3607 2.72148,2.71625 5.43259,2.71625 0,0 1.3349,0 1.3349,-1.3607 l 10.87015,-9.50991 h 2.72137 l 6.79322,10.86855 c 1.33488,1.35556 4.05637,2.71625 5.43742,1.35556 l 1.33528,-1.35556 6.7931,-10.86855 h 2.72132 l 9.50931,9.50991 c 1.33529,1.3607 4.05655,1.3607 5.43785,0 l 1.33488,-1.36069 4.05638,-12.22717 c 1.33518,0 2.72137,0 2.72137,-1.35557 l 10.87018,8.1513 c 1.33493,1.35556 4.05619,1.35556 5.43243,-1.3607 0,0 0,-1.36068 1.33502,-1.36068 l 2.72134,-13.5853 c 1.33488,0 1.33488,-1.3607 2.72146,-1.3607 l 12.22555,5.43405 c 1.38647,1.36065 4.05633,0 5.43769,-1.3607 v -14.94395 l 2.72137,-2.71623 13.58625,2.71623 c 2.72137,0 4.05654,-1.36068 4.05654,-2.71623 v -1.36069 l -2.72136,-13.58584 2.72136,-2.71622 h 13.58612 c 2.72148,0 4.05666,-1.36068 4.05666,-4.07694 v -1.36069 l -5.43264,-12.22666 c 0,-1.36069 1.3349,-1.36069 1.3349,-2.71625 l 13.58642,-2.71625 c 2.72137,0 4.05625,-2.71623 2.72137,-4.0769 v -1.3607 l -8.14876,-10.86856 1.33507,-2.71622 12.23093,-4.07694 c 1.33489,-1.3607 2.72135,-2.71623 2.72135,-5.43401 0,0 0,-1.3607 -1.33515,-1.3607 l -10.87003,-9.50992 v -2.71624 l 10.87003,-6.79317 c 2.72132,-1.35555 2.72132,-4.07693 1.33515,-8.15129 0,1.3607 0,1.3607 0,0 m -77.44134,95.09869 c -4.05633,-1.36069 -6.78805,-5.43454 -6.78805,-9.50992 1.33526,-4.07691 5.43267,-6.79264 9.50953,-6.79264 4.05655,1.36069 6.7932,5.43403 6.7932,9.50992 0,5.434 -4.05638,8.15128 -9.51468,6.79264 m -2.72108,-25.81249 c -4.05663,-1.36068 -8.1488,1.3607 -8.1488,5.43401 l -5.43757,19.01984 c -12.22565,5.43404 -25.81208,8.15131 -40.75396,8.15131 -14.94188,0 -28.52832,-2.71624 -42.114436,-9.50993 l -4.05652,-19.01982 c -1.33491,-4.07696 -4.05637,-6.79267 -8.14867,-5.43404 l -16.30265,4.07692 c -2.72148,-2.71623 -5.4376,-6.79318 -8.15381,-9.50992 h 81.512916 c 1.33488,0 1.33488,0 1.33488,-1.36068 v -28.52977 c 0,-1.35554 0,-1.35554 -1.33488,-1.35554 H 115.128 v -17.66121 h 25.81208 c 2.72148,0 12.23065,0 16.30247,13.58531 1.33517,4.07694 2.72137,17.66121 5.43774,21.7366 1.33504,4.07693 8.14858,13.58582 14.94177,13.58582 h 42.11455 c -2.72121,4.07692 -5.43234,6.79263 -9.50945,10.86805 l -20.37932,-4.07695 M 77.090364,226.88356 c -4.0562,1.3607 -8.15392,-1.36069 -9.50936,-6.79264 -1.33492,-4.07692 1.33498,-8.15129 6.79318,-9.50992 5.43233,-1.3607 8.14869,1.36069 9.50955,6.79264 0,4.07693 -2.72145,8.15128 -6.79337,9.50992 M 45.840894,101.89699 c 1.33488,4.07694 0,9.50992 -4.05654,10.86857 -4.0562,1.36068 -9.50929,0 -10.86988,-4.07693 -1.33518,-4.07693 0,-9.509937 4.05639,-10.868047 5.43246,-1.360703 9.50914,0 10.86489,4.076917 m -9.50955,21.7366 17.66336,-6.79265 c 4.05644,-1.36068 5.43243,-5.43401 4.05644,-9.50991 l -4.05644,-8.151297 h 13.58631 v 63.852177 h -27.17255 c -4.05652,-13.58583 -5.43246,-25.81249 -4.05652,-39.39832 m 76.080316,-5.43401 V 99.180243 h 33.96603 c 1.33486,0 12.22563,1.360687 12.22563,9.509927 0,6.79266 -8.15405,9.50992 -14.947,9.50992 h -31.24466 m 122.27201,16.30257 v 6.79265 H 223.8289 c -1.33487,0 -1.33487,0 -1.33487,1.36069 v 4.07693 c 0,10.86804 -6.79322,13.58532 -12.22582,13.58532 -5.43232,0 -10.86987,-2.71626 -12.22551,-5.43405 -2.72148,-17.66119 -8.15381,-20.37846 -16.30249,-27.17112 9.50928,-6.79264 20.37935,-16.30256 20.37935,-28.529757 0,-13.585325 -9.5146,-21.736605 -14.94693,-25.811985 -9.50951,-5.43454 -19.01897,-6.79318 -21.73509,-6.79318 H 62.184424 c 14.94703,-16.30256 33.96591,-27.17059 55.700896,-31.24651 l 12.23074,13.58582 c 2.72137,2.71624 6.79337,2.71624 10.86508,0 l 13.58643,-13.58582 c 28.52806,5.43452 52.98469,23.09523 67.92646,48.90772 l -9.50948,21.737132 c -1.33487,4.07691 0,8.15128 4.05644,9.50941 l 17.66326,8.15128 v 10.86855 M 130.09559,25.821738 c 2.72127,-2.71624 8.14872,-2.71624 10.86506,0 2.72148,2.71625 2.72148,8.15129 0,10.86857 -4.05633,4.0769 -8.14893,4.0769 -12.22562,0 -2.72137,-2.71625 -1.33507,-6.79269 1.38625,-10.86857 m 93.73845,76.078852 c 1.33518,-4.076927 6.79319,-5.43403 10.87023,-4.076927 4.05619,1.36068 5.43243,6.792657 4.05619,10.868037 -1.33487,4.07694 -6.79293,5.43454 -10.86494,4.07694 -4.05635,-1.36069 -5.43742,-6.79266 -4.05635,-10.86856 z"
       id="path487-6"
       style="fill:#ffffff;fill-opacity:1;stroke:none;stroke-width:13.5855;stroke-opacity:1" />
    <path
       d="m 266.95546,131.86787 -11.94657,-6.6349 v -2.65313 l 9.29357,-9.28904 c 1.30398,-1.32907 1.30398,-3.98227 0,-5.30833 l -1.30403,-1.32908 -11.94176,-3.98226 c 0,-1.32907 0,-2.65313 -1.30399,-2.65313 l 7.96429,-10.615641 c 1.30429,-1.32908 1.30429,-3.982237 -1.30391,-5.308292 0,0 -1.35394,0 -1.35394,-1.329091 L 241.79325,80.11181 c 0,-1.329102 -1.30416,-1.329102 -1.30416,-2.653156 l 5.30644,-11.942681 v -3.982256 c -1.3039,-1.32909 -2.65827,-1.32909 -3.96218,-1.32909 h -13.27074 c 0,0 0,-1.324038 -1.30391,-1.324038 l 2.6581,-13.270308 c 0,-2.653156 -1.30406,-3.982226 -2.6581,-3.982226 h -1.30423 l -13.27059,2.653146 c 0,-1.324076 -1.30406,-1.324076 -2.65816,-2.653146 V 28.357777 c 0,-2.653167 -1.30414,-3.982248 -3.96243,-3.982248 h -1.35401 l -11.94156,5.307806 h -1.35438 l -2.65829,-13.269792 c 0,-2.653136 -2.65787,-3.982217 -3.96204,-2.653136 h -1.30387 l -10.61766,7.961975 c -1.30417,0 -2.65819,0 -2.65819,-1.32908 L 166.25118,8.4505724 c -1.30418,-1.3290606 -2.65827,-2.6531463 -5.30629,-2.6531463 0,0 -1.30407,0 -1.30407,1.3291103 l -10.61258,9.2890166 h -2.65823 L 139.73457,5.799426 c -1.30389,-2.6531365 -3.96218,-2.6531365 -6.63542,-2.6531365 l -1.30392,1.3290805 -6.63541,11.943188 h -2.65818 L 113.213,7.1295312 c -1.3039,-1.3290904 -3.96217,-1.3290904 -5.30619,0 l -1.30399,1.3290705 -3.96235,11.9427203 c -1.30385,0 -2.658144,0 -2.658144,1.329081 L 89.36991,13.768447 c -2.658152,-1.329091 -5.311387,-1.329091 -6.635573,1.329079 v 1.32907 l -2.657981,13.269782 c 0,0 -1.304167,0 -2.65828,1.329101 L 65.476518,25.717653 c -1.304165,-1.329081 -3.962327,0 -5.30645,1.329082 v 14.596871 c 0,1.329071 -1.304038,1.329071 -1.304038,2.653146 L 45.595343,41.643606 c -2.65816,-1.329101 -3.962228,0 -3.962228,2.653146 v 1.329091 l 2.658061,13.270278 c -1.303898,0 -1.303898,1.324055 -2.658061,1.324055 H 28.362418 c -2.658239,0 -3.962297,1.329093 -3.962297,3.982239 v 1.329098 l 5.306313,11.942691 v 2.653167 l -13.270855,2.653166 c -2.658172,0 -3.962039,2.653127 -3.962039,3.982207 v 1.329111 l 7.959458,10.616117 c 0,1.329078 0,2.653138 -1.304047,2.653138 l -10.6175804,5.30834 c -1.3041466,1.32908 -2.6582503,2.65315 -2.6582503,5.30778 0,0 0,1.32908 1.3039875,1.32908 l 9.2885792,9.2891 v 2.65313 l -10.6125855,6.6349 c -2.6581012,1.32908 -2.6581012,3.98221 -2.6581012,5.3083 l 1.3039974,1.32908 11.9415663,7.96197 v 2.65317 l -9.2884696,9.28905 c -1.3039876,1.32904 -1.3039876,3.98219 0,5.30779 l 1.3040571,1.32911 11.9417255,3.98223 c 0,1.32902 0,2.65312 1.304018,2.65312 l -7.964404,10.61616 c -1.304166,1.3291 -1.304166,3.98224 1.303887,5.30779 0,0 1.303849,0 1.303849,1.32909 l 13.270886,2.65316 c 0,1.32909 1.304156,1.32909 1.304156,2.65314 l -5.306441,11.94269 c -1.304067,1.32913 0,3.98227 1.303887,5.30781 h 14.599947 c 1.304077,0 1.304077,1.32909 2.658062,1.32909 l -2.658062,13.27032 c 0,2.65312 1.304077,3.9822 2.658062,3.9822 h 1.304164 l 13.270707,-2.65314 c 0,1.32907 1.304039,1.32907 2.658142,2.65314 v 13.26982 c 0,2.65311 1.304166,3.98222 3.962427,3.98222 h 1.354005 l 11.941566,-5.3078 H 79.9509 l 2.658273,13.26977 c 0,2.65314 2.65788,3.98227 3.962118,2.65314 h 1.303917 l 10.61759,-7.96196 c 1.304171,0 2.658272,0 2.658272,1.32409 l 3.96205,11.94317 c 1.30415,1.3291 2.65826,2.65317 5.30639,2.65317 0,0 1.30394,0 1.30394,-1.3291 l 10.61767,-9.28903 h 2.65814 l 6.63545,10.61612 c 1.30389,1.32408 3.96217,2.65315 5.31116,1.32408 l 1.30424,-1.32408 6.63534,-10.61612 h 2.65811 l 9.28845,9.28903 c 1.30429,1.3291 3.96233,1.3291 5.31154,0 l 1.30388,-1.32907 3.96217,-11.9432 c 1.30417,0 2.65818,0 2.65818,-1.32408 l 10.61772,7.96198 c 1.3039,1.32406 3.96198,1.32406 5.30623,-1.3291 0,0 0,-1.32908 1.30403,-1.32908 l 2.65812,-13.26976 c 1.30389,0 1.30389,-1.32911 2.65828,-1.32911 l 11.94158,5.30788 c 1.35427,1.32903 3.96215,0 5.31142,-1.32914 V 230.0757 l 2.65815,-2.65316 13.27071,2.65316 c 2.65816,0 3.96234,-1.3291 3.96234,-2.65316 v -1.3291 l -2.65819,-13.27027 2.65819,-2.65316 h 13.27054 c 2.65831,0 3.96247,-1.32909 3.96247,-3.98224 v -1.32907 l -5.30649,-11.94271 c 0,-1.32908 1.30393,-1.32908 1.30393,-2.65317 l 13.27084,-2.65314 c 2.65818,0 3.96205,-2.65318 2.65818,-3.98223 v -1.32909 l -7.95951,-10.61613 1.30405,-2.65314 11.94689,-3.98224 c 1.30387,-1.3291 2.65813,-2.65313 2.65813,-5.30782 0,0 0,-1.3291 -1.30414,-1.3291 l -10.61759,-9.28905 v -2.65312 l 10.61759,-6.63541 c 2.65812,-1.32406 2.65812,-3.98226 1.30414,-7.96198 0,1.32907 0,1.32907 0,0 m -75.64274,92.88998 c -3.96211,-1.32908 -6.63036,-5.30834 -6.63036,-9.28904 1.30425,-3.98224 5.30646,-6.63489 9.28866,-6.63489 3.96232,1.32908 6.6354,5.30782 6.6354,9.28905 0,5.30781 -3.96213,7.96195 -9.2937,6.63488 m -2.65786,-25.21299 c -3.96243,-1.32906 -7.95953,1.32909 -7.95953,5.3078 l -5.31132,18.57812 c -11.94166,5.30781 -25.21256,7.96199 -39.80739,7.96199 -14.59487,0 -27.86574,-2.65318 -41.136318,-9.28907 l -3.962296,-18.57808 c -1.303909,-3.98226 -3.962158,-6.63488 -7.95942,-5.30781 l -15.924012,3.98222 c -2.658271,-2.65316 -5.311307,-6.63543 -7.964423,-9.28908 h 79.619729 c 1.30386,0 1.30386,0 1.30386,-1.32906 v -27.86713 c 0,-1.32405 0,-1.32405 -1.30386,-1.32405 h -22.55945 v -17.25104 h 25.21259 c 2.65827,0 11.94657,0 15.92384,13.26978 1.30413,3.98227 2.65814,17.251 5.31146,21.23177 1.30403,3.98221 7.9593,13.27025 14.5947,13.27025 h 41.13643 c -2.65801,3.98227 -5.30617,6.63489 -9.28858,10.61565 l -19.90601,-3.98226 M 78.446181,224.76035 c -3.961991,1.32909 -7.964544,-1.32908 -9.2885,-6.63488 -1.303919,-3.98222 1.303977,-7.962 6.635403,-9.28905 5.306164,-1.32909 7.959439,1.32908 9.288689,6.63489 0,3.98224 -2.658241,7.96197 -6.635592,9.28904 M 47.922501,102.67667 c 1.303878,3.98222 0,9.28905 -3.962327,10.61613 -3.961991,1.32907 -9.28843,0 -10.617421,-3.98224 -1.304167,-3.98224 0,-9.28907 3.962178,-10.615623 5.306292,-1.329089 9.28828,0 10.612545,3.982243 m -9.288679,21.23172 17.253112,-6.63488 c 3.962228,-1.32908 5.306264,-5.30779 3.962228,-9.28905 l -3.962228,-7.96196 h 13.270768 v 62.36918 H 42.611223 c -3.962308,-13.2703 -5.306292,-25.21298 -3.962308,-38.48329 m 74.313315,-5.30778 v -18.57811 h 33.17713 c 1.30389,0 11.9417,1.3291 11.9417,9.28905 0,6.63488 -7.96467,9.28906 -14.59985,9.28906 h -30.51898 m 119.43216,15.92391 v 6.63488 h -10.61776 c -1.30386,0 -1.30386,0 -1.30386,1.32911 v 3.98225 c 0,10.61561 -6.63544,13.26978 -11.94189,13.26978 -5.30613,0 -10.61741,-2.65319 -11.94156,-5.30784 -2.65825,-17.25099 -7.96444,-19.90515 -15.92385,-26.54006 9.28841,-6.63488 19.90604,-15.92391 19.90604,-27.8671 0,-13.269823 -9.29362,-21.23179 -14.59978,-25.212513 -9.28864,-5.308323 -18.57724,-6.635413 -21.23028,-6.635413 H 63.88644 C 78.486317,52.254211 97.063475,41.638591 118.29366,37.657339 l 11.94666,13.270278 c 2.65818,2.653157 6.63557,2.653157 10.61273,0 l 13.27089,-13.270278 c 27.86546,5.308304 51.75406,22.558829 66.34883,47.771808 l -9.2886,21.232253 c -1.30388,3.98224 0,7.96196 3.96221,9.28855 l 17.253,7.96197 v 10.61614 M 130.22034,28.368303 c 2.65804,-2.653156 7.95945,-2.653156 10.61269,0 2.65826,2.653166 2.65826,7.961964 0,10.616137 -3.96211,3.982218 -7.95964,3.982218 -11.94165,0 -2.65817,-2.653156 -1.30409,-6.634925 1.35407,-10.616137 m 91.56129,74.311867 c 1.30418,-3.982218 6.63541,-5.307797 10.61777,-3.982218 3.96197,1.329088 5.30624,6.634868 3.96197,10.615638 -1.30385,3.98222 -6.63515,5.30828 -10.6126,3.98222 -3.96212,-1.32908 -5.31111,-6.63491 -3.96212,-10.61611 z"
       id="path487"
       style="fill:#000000;fill-opacity:1;stroke:none;stroke-width:13.2699;stroke-opacity:1" />
    <circle
       style="fill:#000000;fill-opacity:1;fill-rule:evenodd;stroke-width:0.116215"
       id="path91-3"
       cx="135.46666"
       cy="135.46666"
       r="109.58849" />
    <circle
       style="fill:#ffffff;fill-opacity:1;fill-rule:evenodd;stroke-width:0.105038"
       id="path91-3-3-6"
       cx="135.46666"
       cy="135.46666"
       r="99.04808" />
    <circle
       style="fill:#5555ff;fill-opacity:1;fill-rule:evenodd;stroke-width:0.102416"
       id="path91-3-3"
       cx="135.46666"
       cy="135.46666"
       r="96.576569" />
    <path
       d="m 220.47066,120.30669 c -0.51539,-0.34641 -4.85089,-3.72496 -14.21535,-3.72496 -2.37388,0 -4.84937,0.2491 -7.27477,0.69297 -1.79133,-12.12773 -11.95234,-18.278174 -12.4021,-18.538037 l -2.4536,-1.472434 -1.65081,2.338718 c -1.93037,3.118693 -3.72646,6.670223 -4.41986,10.308483 -1.73356,6.93022 -0.59348,13.51373 2.91276,19.14439 -4.24809,2.42525 -11.17774,3.03186 -12.64583,3.03186 H 54.224993 c -2.995493,0 -5.369443,2.4253 -5.369443,5.45747 0,9.962 1.649268,19.92396 5.022689,29.27971 3.887277,10.30839 9.797054,17.93154 17.323316,22.60928 8.488312,5.19759 22.442884,8.14294 38.280955,8.14294 6.864,0 13.96856,-0.60628 20.96228,-1.90558 9.7049,-1.73238 19.05996,-5.11092 27.65606,-10.04869 7.09988,-4.07133 13.42198,-9.26904 18.79141,-15.50606 9.09578,-10.13513 14.46834,-21.65655 18.3619,-31.61847 h 1.68199 c 9.87515,0 16.01303,-3.9848 19.40829,-7.36329 2.1912,-2.07872 3.8795,-4.59114 5.09299,-7.5364 l 0.64035,-2.07882 -1.68361,-1.21257 m -155.591227,8.57601 h 15.244543 c 0.640378,0 1.561792,-0.60629 1.561792,-1.38578 v -13.68687 c 0,-0.69294 -0.562234,-1.38574 -1.561792,-1.38574 H 64.802943 c -0.71846,0 -1.390011,0.60626 -1.390011,1.38574 v 13.68687 c 0,0.77949 0.562233,1.38578 1.390011,1.38578 m 21.065311,0 h 15.239936 c 0.62475,0 1.53058,-0.60629 1.53058,-1.38578 v -13.68687 c 0,-0.69294 -0.5623,-1.38574 -1.53058,-1.38574 H 85.912041 c -0.702821,0 -1.561771,0.60626 -1.561771,1.38574 v 13.68687 c 0,0.77949 0.562213,1.38578 1.561771,1.38578 m 21.388599,0 h 15.16494 c 0.78089,0 1.604,-0.60629 1.604,-1.38578 v -13.68687 c 0,-0.69294 -0.5154,-1.38574 -1.604,-1.38574 h -15.16494 c -0.59338,0 -1.35874,0.60626 -1.35874,1.38574 v 13.68687 c 0,0.77949 0.43733,1.38578 1.35874,1.38578 m 21.1388,0 h 15.33359 c 0.5935,0 1.35877,-0.60629 1.35877,-1.38578 v -13.68687 c 0,-0.69294 -0.51542,-1.38574 -1.35877,-1.38574 h -15.33359 c -0.59349,0 -1.35874,0.60626 -1.35874,1.38574 v 13.68687 c 0,0.77949 0.56221,1.38578 1.35874,1.38578 M 85.912041,109.47889 h 15.247709 c 0.59348,0 1.4368,-0.77945 1.4368,-1.55908 V 94.319489 c 0,-0.779483 -0.56221,-1.385774 -1.4368,-1.385774 H 85.912041 c -0.702821,0 -1.561771,0.519769 -1.561771,1.385774 v 13.600321 c 0,0.77947 0.562213,1.55908 1.561771,1.55908 m 21.388599,0 h 15.16494 c 0.78089,0 1.604,-0.77945 1.604,-1.55908 V 94.319489 c 0,-0.779483 -0.5154,-1.385774 -1.604,-1.385774 h -15.16494 c -0.59338,0 -1.35874,0.519769 -1.35874,1.385774 v 13.600321 c 0,0.77947 0.43733,1.55908 1.35874,1.55908 m 21.1388,0 h 15.33359 c 0.5935,0 1.35877,-0.77945 1.35877,-1.55908 V 94.319489 c 0,-0.779483 -0.54668,-1.385774 -1.35877,-1.385774 h -15.33359 c -0.59349,0 -1.35874,0.519769 -1.35874,1.385774 v 13.600321 c 0,0.77947 0.56221,1.55908 1.35874,1.55908 m 0,-19.750704 h 15.33359 c 0.5935,0 1.35877,-0.60627 1.35877,-1.385743 V 74.828706 c 0,-0.866184 -0.54668,-1.472454 -1.35877,-1.472454 h -15.33359 c -0.59349,0 -1.35874,0.519589 -1.35874,1.472454 v 13.513737 c 0,0.69294 0.56221,1.385743 1.35874,1.385743 m 21.32148,39.155024 h 15.24143 c 0.71846,0 1.39002,-0.6063 1.39002,-1.38579 V 113.8104 c 0,-0.69295 -0.56232,-1.38575 -1.39002,-1.38575 h -15.24143 c -0.59351,0 -1.40564,0.60627 -1.40564,1.38575 v 13.687 c 0,0.77949 0.5623,1.38579 1.40564,1.38579"
       id="path361"
       style="fill:#ffffff;fill-opacity:1;stroke-width:8.66255" />
  </g>
</svg>
